<svg
                    width="30"
                    height="24"
                    viewBox="0 0 30 24"
                    fill="none"
                    xmlns="http://www.w3.org/2000/svg"
                    className="flex-shrink-0 flex-grow-0"
                    preserveAspectRatio="xMidYMid meet"
                >
                    <path
                        d="M26.9762 5.97464C26.9942 6.23505 26.9942 6.49546 26.9942 6.75833C26.9942 14.7654 20.8986 24 9.75255 24V23.9951C6.45981 23.9998 3.23526 23.0568 0.463959 21.2786C0.94299 21.336 1.42377 21.3652 1.9063 21.366C4.63544 21.3683 7.28608 20.4529 9.43225 18.767C8.16777 18.7431 6.94238 18.3246 5.92737 17.5701C4.91235 16.8156 4.15844 15.7629 3.77101 14.559C4.67887 14.7341 5.61482 14.6984 6.50671 14.4546C3.67978 13.8834 1.64589 11.3996 1.64589 8.51491V8.43811C2.48863 8.90754 3.4318 9.16764 4.39603 9.19653C1.73352 7.41699 0.912743 3.87479 2.52049 1.1053C4.04171 2.9775 5.93981 4.50869 8.09146 5.5994C10.2431 6.69011 12.6002 7.31593 15.0095 7.43618C14.7693 6.40216 14.8047 5.32319 15.1124 4.30718C15.42 3.29117 15.989 2.37373 16.7624 1.64663C19.2031 -0.647667 23.0416 -0.530015 25.3359 1.90933C26.693 1.64143 27.9943 1.14394 29.184 0.438275C28.7316 1.84135 27.785 3.03232 26.5202 3.78963C27.7214 3.64797 28.8945 3.32643 30 2.83578C29.1869 4.0537 28.1629 5.11654 26.9762 5.97464Z"
                        fill="#D8F1BC"
                    ></path>
                </svg>